<mxfile host="app.diagrams.net" agent="Mozilla/5.0 (Windows NT 10.0; Win64; x64) AppleWebKit/537.36 (KHTML, like Gecko) Chrome/129.0.0.0 Safari/537.36" version="24.7.17">
  <diagram id="6a731a19-8d31-9384-78a2-239565b7b9f0" name="Page-1">
    <mxGraphModel dx="1379" dy="1188" grid="1" gridSize="10" guides="1" tooltips="1" connect="1" arrows="1" fold="1" page="1" pageScale="1" pageWidth="827" pageHeight="1169" background="none" math="0" shadow="0">
      <root>
        <mxCell id="0" />
        <mxCell id="1" parent="0" />
        <mxCell id="2096" value="" style="shape=mxgraph.cisco.computers_and_peripherals.workstation;html=1;dashed=0;fillColor=#10739E;strokeColor=#ffffff;strokeWidth=2;verticalLabelPosition=bottom;verticalAlign=top;fontFamily=Helvetica;fontSize=36;fontColor=#FFB366" parent="1" vertex="1">
          <mxGeometry x="898" y="680" width="83" height="62" as="geometry" />
        </mxCell>
        <mxCell id="2114" value="" style="shape=mxgraph.cisco.switches.workgroup_switch;html=1;dashed=0;fillColor=#10739E;strokeColor=#ffffff;strokeWidth=2;verticalLabelPosition=bottom;verticalAlign=top;fontFamily=Helvetica;fontSize=36;fontColor=#FFB366" parent="1" vertex="1">
          <mxGeometry x="880" y="470" width="101" height="50" as="geometry" />
        </mxCell>
        <mxCell id="2115" value="" style="shape=mxgraph.cisco.switches.workgroup_switch;html=1;dashed=0;fillColor=#10739E;strokeColor=#ffffff;strokeWidth=2;verticalLabelPosition=bottom;verticalAlign=top;fontFamily=Helvetica;fontSize=36;fontColor=#FFB366" parent="1" vertex="1">
          <mxGeometry x="1131.5" y="290" width="101" height="50" as="geometry" />
        </mxCell>
        <mxCell id="2116" value="" style="shape=mxgraph.cisco.switches.workgroup_switch;html=1;dashed=0;fillColor=#10739E;strokeColor=#ffffff;strokeWidth=2;verticalLabelPosition=bottom;verticalAlign=top;fontFamily=Helvetica;fontSize=36;fontColor=#FFB366" parent="1" vertex="1">
          <mxGeometry x="1400" y="480" width="101" height="50" as="geometry" />
        </mxCell>
        <object label="" id="2138">
          <mxCell style="shape=mxgraph.cisco.routers.router;html=1;dashed=0;fillColor=#10739E;strokeColor=#ffffff;strokeWidth=2;verticalLabelPosition=bottom;verticalAlign=top;fontFamily=Helvetica;fontSize=35;fontColor=default;" parent="1" vertex="1">
            <mxGeometry x="1143" y="70" width="78" height="53" as="geometry" />
          </mxCell>
        </object>
        <mxCell id="2161" value="" style="edgeStyle=elbowEdgeStyle;elbow=horizontal;endArrow=none;html=1;strokeColor=#23445D;endFill=0;strokeWidth=4;rounded=1;exitX=0.398;exitY=0.471;exitDx=0;exitDy=0;exitPerimeter=0;" parent="1" target="2096" edge="1" source="2114">
          <mxGeometry width="100" height="100" relative="1" as="geometry">
            <mxPoint x="1060" y="624.7" as="sourcePoint" />
            <mxPoint x="96.30555555555554" y="156.25" as="targetPoint" />
            <Array as="points">
              <mxPoint x="920" y="480" />
            </Array>
          </mxGeometry>
        </mxCell>
        <mxCell id="2172" style="edgeStyle=none;rounded=1;html=1;strokeColor=#23445D;endArrow=none;endFill=0;strokeWidth=4;exitX=0.39;exitY=0.977;exitDx=0;exitDy=0;exitPerimeter=0;" parent="1" source="2115" target="2114" edge="1">
          <mxGeometry relative="1" as="geometry">
            <Array as="points">
              <mxPoint x="931" y="339" />
            </Array>
          </mxGeometry>
        </mxCell>
        <mxCell id="2173" style="edgeStyle=none;rounded=1;html=1;strokeColor=#23445D;endArrow=none;endFill=0;strokeWidth=4;exitX=0.5;exitY=0.98;exitDx=0;exitDy=0;exitPerimeter=0;" parent="1" source="2115" target="2116" edge="1">
          <mxGeometry relative="1" as="geometry">
            <Array as="points">
              <mxPoint x="1451" y="340" />
            </Array>
          </mxGeometry>
        </mxCell>
        <mxCell id="2175" style="edgeStyle=none;rounded=1;html=1;strokeColor=#23445D;endArrow=none;endFill=0;strokeWidth=4;exitX=0.5;exitY=1;exitDx=0;exitDy=0;exitPerimeter=0;" parent="1" source="2138" target="2115" edge="1">
          <mxGeometry relative="1" as="geometry" />
        </mxCell>
        <mxCell id="PBcu1xyfOd3klQbmD5s6-2262" value="" style="shape=mxgraph.cisco.computers_and_peripherals.workstation;html=1;dashed=0;fillColor=#10739E;strokeColor=#ffffff;strokeWidth=2;verticalLabelPosition=bottom;verticalAlign=top;fontFamily=Helvetica;fontSize=36;fontColor=#FFB366" vertex="1" parent="1">
          <mxGeometry x="1440" y="680" width="83" height="62" as="geometry" />
        </mxCell>
        <mxCell id="PBcu1xyfOd3klQbmD5s6-2263" value="" style="edgeStyle=elbowEdgeStyle;elbow=horizontal;endArrow=none;html=1;strokeColor=#23445D;endFill=0;strokeWidth=4;rounded=1;exitX=0.824;exitY=0.45;exitDx=0;exitDy=0;exitPerimeter=0;" edge="1" parent="1" target="PBcu1xyfOd3klQbmD5s6-2262" source="2116">
          <mxGeometry width="100" height="100" relative="1" as="geometry">
            <mxPoint x="1500" y="73" as="sourcePoint" />
            <mxPoint x="747.2255555555555" y="85" as="targetPoint" />
          </mxGeometry>
        </mxCell>
        <mxCell id="PBcu1xyfOd3klQbmD5s6-2266" value="&lt;font style=&quot;font-size: 23px;&quot;&gt;Router1&lt;/font&gt;" style="text;html=1;align=center;verticalAlign=middle;whiteSpace=wrap;rounded=0;" vertex="1" parent="1">
          <mxGeometry x="1210" y="10" width="119" height="88.5" as="geometry" />
        </mxCell>
        <mxCell id="PBcu1xyfOd3klQbmD5s6-2267" value="&lt;span style=&quot;font-size: 23px;&quot;&gt;Switch1&lt;/span&gt;" style="text;html=1;align=center;verticalAlign=middle;whiteSpace=wrap;rounded=0;" vertex="1" parent="1">
          <mxGeometry x="1230" y="251.5" width="119" height="88.5" as="geometry" />
        </mxCell>
        <mxCell id="PBcu1xyfOd3klQbmD5s6-2268" value="&lt;font style=&quot;font-size: 23px;&quot;&gt;Switch2_1&lt;/font&gt;" style="text;html=1;align=center;verticalAlign=middle;whiteSpace=wrap;rounded=0;" vertex="1" parent="1">
          <mxGeometry x="981" y="450.75" width="119" height="88.5" as="geometry" />
        </mxCell>
        <mxCell id="PBcu1xyfOd3klQbmD5s6-2269" value="&lt;font style=&quot;font-size: 23px;&quot;&gt;Switch2_2&lt;/font&gt;" style="text;html=1;align=center;verticalAlign=middle;whiteSpace=wrap;rounded=0;" vertex="1" parent="1">
          <mxGeometry x="1281" y="450.75" width="119" height="88.5" as="geometry" />
        </mxCell>
        <mxCell id="PBcu1xyfOd3klQbmD5s6-2270" value="&lt;font style=&quot;font-size: 23px;&quot;&gt;PC1&lt;/font&gt;" style="text;html=1;align=center;verticalAlign=middle;whiteSpace=wrap;rounded=0;" vertex="1" parent="1">
          <mxGeometry x="950" y="666.75" width="119" height="88.5" as="geometry" />
        </mxCell>
        <mxCell id="PBcu1xyfOd3klQbmD5s6-2271" value="&lt;font style=&quot;font-size: 23px;&quot;&gt;PC2&lt;/font&gt;" style="text;html=1;align=center;verticalAlign=middle;whiteSpace=wrap;rounded=0;" vertex="1" parent="1">
          <mxGeometry x="1349" y="666.75" width="119" height="88.5" as="geometry" />
        </mxCell>
        <mxCell id="PBcu1xyfOd3klQbmD5s6-2272" value="&lt;span style=&quot;font-size: 23px;&quot;&gt;DHCP server&lt;/span&gt;" style="text;html=1;align=center;verticalAlign=middle;whiteSpace=wrap;rounded=0;" vertex="1" parent="1">
          <mxGeometry x="1030" y="52.25" width="119" height="88.5" as="geometry" />
        </mxCell>
      </root>
    </mxGraphModel>
  </diagram>
</mxfile>
